<svg width="26" height="26" viewBox="0 0 26 26" fill="none" xmlns="http://www.w3.org/2000/svg">
<path d="M17.3131 9.74032L19.5969 12.0465L10.0071 11.9787C9.74193 11.9769 9.48684 12.0804 9.29798 12.2666C9.10913 12.4528 9.00198 12.7064 9.0001 12.9717C8.99823 13.2369 9.10178 13.492 9.28799 13.6808C9.4742 13.8697 9.7278 13.9768 9.99301 13.9787L19.5828 14.0465L17.2666 16.3202C17.1723 16.4125 17.0971 16.5225 17.0455 16.644C16.9938 16.7655 16.9668 16.896 16.9658 17.028C16.9649 17.1601 16.9901 17.2909 17.04 17.4132C17.0899 17.5354 17.1635 17.6465 17.2566 17.7401C17.3489 17.8345 17.459 17.9097 17.5805 17.9613C17.702 18.0129 17.8325 18.04 17.9645 18.0409C18.0965 18.0419 18.2274 18.0166 18.3496 17.9667C18.4718 17.9168 18.583 17.8432 18.6766 17.7502L22.7047 13.7785C22.7965 13.6841 22.8686 13.5724 22.9171 13.45C23.0188 13.2073 23.0207 12.9342 22.9224 12.69C22.8757 12.5669 22.8051 12.4543 22.7148 12.3586L18.7431 8.33039C18.6506 8.23649 18.5404 8.16175 18.4189 8.11043C18.2975 8.05911 18.1671 8.03222 18.0352 8.03129C17.9034 8.03036 17.7726 8.0554 17.6505 8.105C17.5283 8.1546 17.4171 8.22778 17.3232 8.32035C17.2293 8.41293 17.1545 8.5231 17.1032 8.64456C17.0519 8.76602 17.025 8.8964 17.0241 9.02826C17.0231 9.16011 17.0482 9.29086 17.0978 9.41304C17.1474 9.53521 17.2206 9.64642 17.3131 9.74032ZM12.9364 21.9997C12.9383 21.7345 12.8347 21.4794 12.6485 21.2905C12.4623 21.1017 12.2087 20.9945 11.9435 20.9927L5.94364 20.9503C5.67843 20.9484 5.42483 20.8412 5.23862 20.6524C5.05242 20.4635 4.94886 20.2084 4.95074 19.9432L5.04967 5.94357C5.05154 5.67836 5.15869 5.42475 5.34755 5.23855C5.5364 5.05234 5.7915 4.94878 6.05671 4.95066L12.0566 4.99306C12.3218 4.99493 12.5769 4.89137 12.7657 4.70517C12.9546 4.51896 13.0617 4.26536 13.0636 4.00015C13.0655 3.73494 12.9619 3.47984 12.7757 3.29099C12.5895 3.10213 12.3359 2.99498 12.0707 2.99311L6.07084 2.95071C5.27521 2.94508 4.50993 3.25576 3.94336 3.81437C3.37679 4.37299 3.05534 5.1338 3.04972 5.92943L2.95079 19.9291C2.94516 20.7247 3.25583 21.49 3.81445 22.0566C4.37307 22.6231 5.13388 22.9446 5.92951 22.9502L11.9294 22.9926C12.1946 22.9945 12.4497 22.8909 12.6385 22.7047C12.8274 22.5185 12.9345 22.2649 12.9364 21.9997Z" fill="white"/>
</svg>
